<?xml version="1.0" encoding="utf-8"?>
<!-- Generator: Adobe Illustrator 19.0.0, SVG Export Plug-In . SVG Version: 6.00 Build 0)  -->
<svg version="1.1" id="Calque_1" xmlns="http://www.w3.org/2000/svg" xmlns:xlink="http://www.w3.org/1999/xlink" x="0px" y="0px"
	 viewBox="-255 208.3 330 180" style="enable-background:new -255 208.3 330 180;" xml:space="preserve">
<style type="text/css">
	.st0{enable-background:new    ;}
	.st1{fill:#0069cb;}
</style>
<path class="st1" d="M21.7,322.5v-13.1H10.3v-53h-24.5v13.1h11.3v39.9h-11.4v13.1h11.4H21.7L21.7,322.5z M14.1,227.2
	c0-6.3-5.1-11.4-11.4-11.4s-11.4,5.1-11.4,11.4c0,6.3,5.1,11.4,11.4,11.4S14.1,233.5,14.1,227.2L14.1,227.2z M-62,278.1
	c0-24.9,1.9-33.2,13.4-33.2c8.5,0,9.4,7.3,9.4,10.5h13.1c0-13.9-9.3-23.6-22.5-23.6c-11.8,0-20,5.8-23.7,16.9
	c-2.8,8.5-2.8,19.1-2.8,29.4c0,10.3,0,21,2.8,29.4c3.7,11,11.9,16.9,23.7,16.9c13.3,0,22.5-9.7,22.5-23.6h-13.1
	c0,3.2-0.9,10.5-9.4,10.5C-58.7,311.3-62,306.5-62,278.1L-62,278.1z M-119.2,255.4c0-6.1,4.8-10.5,11.4-10.5
	c6.6,0,11.4,4.4,11.4,10.5h13.1c0-13.4-10.5-23.6-24.5-23.6s-24.5,10.1-24.5,23.6c0,13.4,11,21.2,20.7,28.1
	c9.2,6.5,15.2,11.2,15.2,17.4c0,6.1-4.8,10.5-11.4,10.5c-6.6,0-11.4-4.4-11.4-10.5h-13.1c0,13.4,10.5,23.6,24.5,23.6
	s24.5-10.1,24.5-23.6c0-13.4-11-21.2-20.7-28.1C-113.2,266.3-119.2,261.6-119.2,255.4L-119.2,255.4z M-157.6,322.5h15.1v-88.8h-13.1
	v56.5l-20.8-56.5h-15.1v88.8h13.1v-56.4L-157.6,322.5L-157.6,322.5z M-251.9,322.5h46.9v-13.1h-33.9v-28.5h21.4v-13.1h-21.4v-21
	h33.9v-13.1h-46.9v34.1v13.1V322.5L-251.9,322.5z"/>
<path class="st1" d="M-138.1,372.4v-27.5h-2.8l0.1,32.5h13.8v-5H-138.1L-138.1,372.4z M-109.2,344.9h-13.9v32.4h13.9v-5h-11.1v-10
	h7.7v-5h-7.7v-7.4h11.1V344.9L-109.2,344.9z M-102.4,354c0-2.6,1.7-4.3,4.1-4.3c2.4,0,4,1.8,4,4.3h2.8c0-1.6-0.3-3.2-0.9-4.6
	c-1.3-2.9-3.4-4.7-5.9-4.7c-1.2,0-2.3,0.4-3.4,1.3c-2.1,1.7-3.5,4.7-3.5,8c0,1.9,0.3,3.5,1,4.8c1.3,2.5,2.9,3.6,5.8,5.1
	c2.8,1.4,4.1,2.3,4.1,4.4c0,2.5-1.7,4.3-4,4.3c-2.4,0-4-1.8-4-4.3h-2.8c0,1.6,0.3,3.2,0.9,4.6c1.3,2.9,3.4,4.7,5.9,4.7
	c1.2,0,2.3-0.4,3.4-1.3c2-1.7,3.4-4.8,3.4-8c0-1.9-0.3-3.6-0.9-4.9c-1.3-2.5-3-3.5-5.9-5.1C-101.2,357-102.4,356.1-102.4,354
	L-102.4,354z M-56.5,377.3l-6.1-32.5h-3.3l-6.1,32.5h2.9l1.5-8.2h6.7l1.6,8.2H-56.5L-56.5,377.3z M-64.3,351.6l2.4,12.6h-4.8
	L-64.3,351.6L-64.3,351.6z M-54.6,344.9v5h5.2v27.4h2.8v-27.4h5.2v-5H-54.6L-54.6,344.9z M-23.4,344.9h-13.9v32.4h13.9v-5h-11.1v-10
	h7.7v-5h-7.7v-7.4h11.1V344.9L-23.4,344.9z M-15.6,372.4v-27.5h-2.8l0.1,32.5h13.8v-5H-15.6L-15.6,372.4z M12.6,344.9H-0.6v5h5.2
	v22.5h-5.2v5h13.2v-5H7.4v-22.5h5.2V344.9L12.6,344.9z M31.6,344.9H17.7v32.4h13.9v-5H20.5v-10h7.7v-5h-7.7v-7.4h11.1V344.9
	L31.6,344.9z M46.8,363c2.6-1.4,4.4-4.9,4.4-8.7c0-1.7-0.3-3.2-0.9-4.6c-1.3-2.9-3.5-4.7-5.9-4.7h-7.8v32.3h2.8v-13.7h4.5l5.4,13.7
	h3.3L46.8,363L46.8,363z M39.3,358.7V350h5.1c2.4,0,4,1.9,4,4.4s-1.7,4.4-4.1,4.4h-5V358.7z M59.1,354c0-2.6,1.7-4.3,4.1-4.3
	s4,1.8,4,4.3H70c0-1.6-0.3-3.2-0.9-4.6c-1.3-2.9-3.4-4.7-5.9-4.7c-1.2,0-2.3,0.4-3.4,1.3c-2.1,1.7-3.5,4.7-3.5,8
	c0,1.9,0.3,3.5,1,4.8c1.3,2.5,2.9,3.6,5.8,5.1c2.8,1.4,4.1,2.3,4.1,4.4c0,2.5-1.7,4.3-4,4.3c-2.4,0-4-1.8-4-4.3h-2.8
	c0,1.6,0.3,3.2,0.9,4.6c1.3,2.9,3.4,4.7,5.9,4.7c1.2,0,2.3-0.4,3.4-1.3c2-1.7,3.4-4.8,3.4-8c0-1.9-0.3-3.6-0.9-4.9
	c-1.3-2.5-3-3.5-5.9-5.1C60.4,357,59.1,356.1,59.1,354L59.1,354z"/>
</svg>
