<?xml version="1.0" encoding="UTF-8"?>
<svg width="20px" height="20px" viewBox="0 0 20 20" version="1.1" xmlns="http://www.w3.org/2000/svg" xmlns:xlink="http://www.w3.org/1999/xlink">
    <!-- Generator: Sketch 52.5 (67469) - http://www.bohemiancoding.com/sketch -->
    <title>Fill 1</title>
    <desc>Created with Sketch.</desc>
    <g id="Page-1" stroke="none" stroke-width="1" fill="none" fill-rule="evenodd">
        <g id="HOME" transform="translate(-755.000000, -4791.000000)" fill="#0069CB">
            <g id="FOOTER" transform="translate(0.000000, 4686.000000)">
                <g id="Group-3" transform="translate(528.000000, 80.000000)">
                    <g id="Group-4" transform="translate(227.000000, 0.000000)">
                        <path d="M4,27.0196066 C4,27.5555576 3.82764576,28.0196053 3.48292729,28.4117647 C3.13821132,28.8039241 2.64715821,29 2.00975672,29 C1.39837134,29 0.910571305,28.8104596 0.546341634,28.4313713 C0.182112063,28.0522855 0,27.5947733 0,27.0588248 C0,26.5228737 0.178860063,26.0457525 0.536585658,25.627451 C0.894310929,25.2091495 1.38536304,25 2.00975672,25 C2.62114111,25 3.10243874,25.1993437 3.45365837,25.5980386 C3.80488049,25.9967335 3.9869927,26.4705845 4,27.0196066 Z M0,45 L0,31 L4,31 L4,45 L0,45 Z M6.11290467,35.6381689 C6.11290467,34.7974528 6.10161218,34.0173064 6.07903298,33.2977104 C6.05645089,32.5781144 6.03010849,31.919088 6,31.320612 L10.1548387,31.320612 L10.358066,33.2015279 L10.4483885,33.2015279 C10.7494648,32.7597958 11.261286,32.2824454 11.9838724,31.7694656 C12.7064559,31.2564885 13.6698872,31 14.874195,31 C15.5967785,31 16.2741892,31.1175579 16.9064502,31.3526738 C17.538714,31.5877896 18.0806437,31.9475821 18.5322566,32.4320623 C18.9838724,32.9165424 19.3413966,33.5256965 19.604838,34.2595437 C19.8682822,34.9933882 20,35.859028 20,36.8564907 L20,45 L15.3709663,45 L15.3709663,37.4977093 C15.3709663,36.6284964 15.1865608,35.8982222 14.8177412,35.3068705 C14.4489216,34.7155188 13.8655967,34.419847 13.0677434,34.419847 C12.4505352,34.419847 11.9725828,34.6086499 11.6338717,34.9862612 C11.2951606,35.3638698 11.0505381,35.7450377 10.9000014,36.1297705 C10.8397845,36.2722659 10.7983864,36.4361313 10.7758072,36.6213749 C10.7532251,36.8066184 10.7419355,36.9918565 10.7419355,37.1771 L10.7419355,45 L6.11290467,45 L6.11290467,35.6381689 Z" id="Fill-1"></path>
                    </g>
                </g>
            </g>
        </g>
    </g>
</svg>